Puppet Master Collection 1-8 
http://www.imdb.com/title/tt0098143/

Source  :

1. Puppet_Master__1989__FS.DVDRIP.FFDS
2. Puppet_Master_2__1992__FS.DVDRIP.XVID.SuperR
3. Puppet_Master_3__1991__FS.DVDRIP.XVID.SuperR
4. Puppet Master 4 (1994) FS.DVDRIP.FFDS.SuperR
5. Puppet Master 5--upload-by-danielek---
6. Puppet Master 6 (1998) FS.DVDRIP.DIVX.SuperR
7. Puppet Master 7 (1999) FS.DVDRIP.XVID.SuperR
8. Puppet Master The Legacy (2004) FS.DVDRIP-DivX-SuperR



Info puppet master 1:

ID                               : 1
Format                           : AVC
Format/Info                      : Advanced Video Codec
Format profile                   : Baseline@L2.1
Format settings, CABAC           : No
Format settings, ReFrames        : 3 frames
Codec ID                         : avc1
Codec ID/Info                    : Advanced Video Coding
Duration                         : 1h 27mn
Bit rate mode                    : Variable
Bit rate                         : 400 Kbps
Width                            : 480 pixels
Height                           : 368 pixels
Display aspect ratio             : 4:3
Frame rate mode                  : Variable
Frame rate                       : 23.976 fps
Minimum frame rate               : 23.974 fps
Maximum frame rate               : 23.981 fps
Color space                      : YUV
Chroma subsampling               : 4:2:0
Bit depth                        : 8 bits
Scan type                        : Progressive
Bits/(Pixel*Frame)               : 0.094
Stream size                      : 251 MiB (75%)
Writing library                  : x264 core 79

ID                               : 2
Format                           : AAC
Format/Info                      : Advanced Audio Codec
Format version                   : Version 4
Format profile                   : LC
Format settings, SBR             : No
Codec ID                         : 40
Duration                         : 1h 27mn
Bit rate mode                    : Variable
Bit rate                         : 128 Kbps
Maximum bit rate                 : 164 Kbps
Channel(s)                       : 2 channels
Channel positions                : Front: L R
Sampling rate                    : 48.0 KHz
Stream size                      : 80.3 MiB (24%)

Screens from puppet master 1 : 
http://img130.imageshack.us/img130/8282/puppetmaster1ooom4vthum.jpg


NOTE : THIS COLLECTION WAS VERY HARD TO FIND ALMOST IMPOSSIBLE.. IT'S 
DVD RE-RIPS.. PLEASE HELP ME SHARE AS LONG AS POSSIBLE =)



PLEASE LET THE TORRENT SEED AND SHARE IT WITH ALL YOU KNOW!

Let me know what I can do to be your trusted source of Handheld videos. 
http://thepiratebay.org/user/on.off.on/ -OOO